<svg width="56" height="69" viewBox="0 0 56 69" fill="none" xmlns="http://www.w3.org/2000/svg">
<path d="M50.374 9.00001H13.4083L10.467 1.53001C10.2892 1.08311 9.95052 0.694954 9.49879 0.420402C9.04706 0.14585 8.50513 -0.00121011 7.9496 7.50045e-06H0V4.50001H6.0417L15.4222 28.4175C15.7732 29.3155 16.4487 30.0967 17.3525 30.6501C18.2564 31.2035 19.3427 31.5009 20.457 31.5H40.5695C41.6478 31.4984 42.6999 31.2175 43.5853 30.6949C44.4707 30.1722 45.1473 29.4327 45.5247 28.575L52.8384 12.0375C53.1298 11.34 53.0238 10.575 52.5469 9.96751C52.3034 9.66946 51.9786 9.42582 51.6002 9.25736C51.2219 9.08889 50.8012 9.0006 50.374 9.00001ZM40.596 27H20.4835L15.1837 13.5H46.5582L40.596 27ZM21.2254 36C19.8199 36 18.4719 36.4741 17.478 37.318C16.4841 38.1619 15.9257 39.3065 15.9257 40.5C15.9257 41.6935 16.4841 42.8381 17.478 43.682C18.4719 44.5259 19.8199 45 21.2254 45C22.631 45 23.979 44.5259 24.9729 43.682C25.9668 42.8381 26.5252 41.6935 26.5252 40.5C26.5252 39.3065 25.9668 38.1619 24.9729 37.318C23.979 36.4741 22.631 36 21.2254 36ZM39.7745 36C38.3689 36 37.0209 36.4741 36.027 37.318C35.0331 38.1619 34.4748 39.3065 34.4748 40.5C34.4748 41.6935 35.0331 42.8381 36.027 43.682C37.0209 44.5259 38.3689 45 39.7745 45C41.1801 45 42.5281 44.5259 43.522 43.682C44.5159 42.8381 45.0742 41.6935 45.0742 40.5C45.0742 39.3065 44.5159 38.1619 43.522 37.318C42.5281 36.4741 41.1801 36 39.7745 36Z" fill="#F4F4F4"/>
<path d="M13.76 49.8667H15.84C15.84 50.72 15.824 51.52 15.792 52.2667H21.872V53.9147C21.872 55.5573 21.84 56.9173 21.776 57.9947C21.712 59.072 21.616 59.9573 21.488 60.6507C21.3707 61.344 21.1893 61.8667 20.944 62.2187C20.6987 62.56 20.4267 62.7893 20.128 62.9067C19.84 63.0347 19.4613 63.0987 18.992 63.0987C18.288 63.0987 17.1893 63.024 15.696 62.8747L15.872 60.9387C16.9707 61.0453 17.7973 61.0987 18.352 61.0987C18.6933 61.0987 18.944 60.976 19.104 60.7307C19.2747 60.4747 19.4027 59.9093 19.488 59.0347C19.584 58.1493 19.632 56.7893 19.632 54.9547V54.1867H15.664C15.4507 56.4693 14.9867 58.2987 14.272 59.6747C13.5573 61.04 12.4747 62.2827 11.024 63.4027L9.68 61.9307C10.896 61.0027 11.7973 59.9787 12.384 58.8587C12.9813 57.7387 13.3813 56.1813 13.584 54.1867H9.808V52.2667H13.712C13.744 51.5307 13.76 50.7307 13.76 49.8667ZM25.392 57.9787V55.8347H38.608V57.9787H25.392ZM43.632 50.2987H45.872V54.7787C48.6453 55.4507 51.5467 56.3413 54.576 57.4507L53.904 59.4667C51.2373 58.4747 48.56 57.6427 45.872 56.9707V63.5147H43.632V50.2987Z" fill="#F4F4F4"/>
</svg>
