<svg width="80" height="74" viewBox="0 0 80 74" fill="none" xmlns="http://www.w3.org/2000/svg">
<path d="M31.429 35.3333L39.829 30.2667L48.229 35.4L46.029 25.8L53.429 19.4L43.6957 18.5333L39.829 9.46667L35.9623 18.4667L26.229 19.3333L33.629 25.8L31.429 35.3333ZM39.829 36.5333L28.7623 43.2C28.2734 43.5111 27.7623 43.6444 27.229 43.6C26.6957 43.5556 26.229 43.3778 25.829 43.0667C25.429 42.7556 25.1179 42.3671 24.8957 41.9013C24.6734 41.4356 24.629 40.9129 24.7623 40.3333L27.6957 27.7333L17.8957 19.2667C17.4512 18.8667 17.1739 18.4107 17.0637 17.8987C16.9534 17.3867 16.9863 16.8871 17.1623 16.4C17.3383 15.9129 17.605 15.5129 17.9623 15.2C18.3197 14.8871 18.8086 14.6871 19.429 14.6L32.3623 13.4667L37.3623 1.6C37.5846 1.06667 37.9294 0.666666 38.397 0.4C38.8646 0.133333 39.3419 0 39.829 0C40.3161 0 40.7934 0.133333 41.261 0.4C41.7286 0.666666 42.0734 1.06667 42.2957 1.6L47.2957 13.4667L60.229 14.6C60.8512 14.6889 61.3401 14.8889 61.6957 15.2C62.0512 15.5111 62.3179 15.9111 62.4957 16.4C62.6734 16.8889 62.7072 17.3893 62.597 17.9013C62.4868 18.4133 62.2086 18.8684 61.7623 19.2667L51.9623 27.7333L54.8957 40.3333C55.029 40.9111 54.9846 41.4338 54.7623 41.9013C54.5401 42.3689 54.229 42.7573 53.829 43.0667C53.429 43.376 52.9623 43.5538 52.429 43.6C51.8957 43.6462 51.3846 43.5129 50.8957 43.2L39.829 36.5333Z" fill="#F4F4F4"/>
<path d="M1.872 56.6809H5.6V54.6969H7.632V56.6809H11.152V58.3769H7.632V60.3929C8.03733 60.3716 8.35733 60.3609 8.592 60.3609C10.1707 60.3609 11.4453 60.7289 12.416 61.4649C13.3867 62.2009 13.872 63.0916 13.872 64.1369C13.872 65.3956 13.4827 66.3876 12.704 67.1129C11.936 67.8383 10.7947 68.2863 9.28 68.4569L8.848 66.6489C9.872 66.5209 10.6187 66.2649 11.088 65.8809C11.5573 65.4863 11.792 64.9423 11.792 64.2489C11.792 63.7156 11.4987 63.2569 10.912 62.8729C10.336 62.4783 9.56267 62.2809 8.592 62.2809C8.35733 62.2809 8.03733 62.2916 7.632 62.3129V65.6409C7.632 66.6223 7.44 67.2996 7.056 67.6729C6.672 68.0569 5.98933 68.2489 5.008 68.2489C3.94133 68.2489 3.03467 67.9236 2.288 67.2729C1.54133 66.6116 1.168 65.8009 1.168 64.8409C1.168 63.9023 1.552 63.0596 2.32 62.3129C3.09867 61.5556 4.192 61.0116 5.6 60.6809V58.3769H1.872V56.6809ZM11.664 57.0489L13.088 56.0409C14.0373 57.2996 14.864 58.5156 15.568 59.6889L14.064 60.5849C13.3173 59.3476 12.5173 58.1689 11.664 57.0489ZM5.6 62.6329C4.81067 62.8569 4.21333 63.1663 3.808 63.5609C3.40267 63.9449 3.2 64.3716 3.2 64.8409C3.2 65.2569 3.36533 65.6303 3.696 65.9609C4.03733 66.2809 4.40533 66.4409 4.8 66.4409C5.10933 66.4409 5.31733 66.3769 5.424 66.2489C5.54133 66.1209 5.6 65.8809 5.6 65.5289V62.6329ZM16.432 59.5129C17.7867 57.9023 18.7787 56.0996 19.408 54.1049L21.392 54.5049C21.3707 54.5903 21.344 54.6809 21.312 54.7769C21.28 54.8729 21.2427 54.9796 21.2 55.0969C21.1573 55.2143 21.1253 55.3049 21.104 55.3689H30.448V57.0809H20.384C20.288 57.2836 20.1333 57.5769 19.92 57.9609H29.488V59.4809H19.728V58.2809C19.248 59.0916 18.7573 59.7903 18.256 60.3769H28.432V61.0009C28.432 62.1529 28.496 63.1769 28.624 64.0729C28.752 64.9583 28.8907 65.5929 29.04 65.9769C29.2 66.3503 29.344 66.5369 29.472 66.5369C29.536 66.5369 29.584 66.4729 29.616 66.3449C29.6587 66.2169 29.7067 65.8916 29.76 65.3689C29.824 64.8463 29.8933 64.0623 29.968 63.0169L31.728 63.3529C31.6533 64.9316 31.52 66.1369 31.328 66.9689C31.1467 67.7903 30.9173 68.3343 30.64 68.6009C30.3733 68.8676 30 69.0009 29.52 69.0009C28.6453 69.0009 27.904 68.4303 27.296 67.2889C26.688 66.1476 26.352 64.3983 26.288 62.0409H17.968V60.5369L16.432 59.5129ZM18.048 63.8169L19.12 62.3929C20.272 63.0649 21.3013 63.7316 22.208 64.3929C22.9547 63.7743 23.68 63.0649 24.384 62.2649L25.808 63.4809C25.2533 64.1529 24.5653 64.8463 23.744 65.5609C24.5013 66.1583 25.3653 66.8729 26.336 67.7049L25.088 69.0329C24.032 68.1263 23.0933 67.3529 22.272 66.7129C20.8 67.7796 19.2693 68.6116 17.68 69.2089L16.784 67.6089C18.1173 67.0969 19.4187 66.4036 20.688 65.5289C19.8773 64.9529 18.9973 64.3823 18.048 63.8169ZM39.152 58.3289V56.4569H46.032V58.3289H39.152ZM36.656 55.4649C36.144 57.4169 35.888 59.5449 35.888 61.8489C35.888 64.1529 36.144 66.2809 36.656 68.2329L34.56 68.4729C34.0267 66.4356 33.76 64.2276 33.76 61.8489C33.76 59.4703 34.0267 57.2623 34.56 55.2249L36.656 55.4649ZM46.176 65.4809L46.464 67.3369C45.248 67.6569 43.984 67.8169 42.672 67.8169C41.168 67.8169 39.9787 67.5289 39.104 66.9529C38.24 66.3663 37.808 65.5876 37.808 64.6169C37.808 64.1476 37.984 63.5983 38.336 62.9689C38.6987 62.3289 39.1893 61.7316 39.808 61.1769L41.312 62.3769C40.8747 62.8036 40.5333 63.2143 40.288 63.6089C40.0427 63.9929 39.92 64.3023 39.92 64.5369C39.92 65.4436 40.8373 65.8969 42.672 65.8969C43.824 65.8969 44.992 65.7583 46.176 65.4809ZM51.2 55.1289H57.648V56.5209C57.648 58.9743 58.144 61.1396 59.136 63.0169C60.1387 64.8943 61.552 66.3556 63.376 67.4009L62.224 69.0489C60.9867 68.4089 59.8667 67.4329 58.864 66.1209C57.8613 64.8089 57.0827 63.3156 56.528 61.6409C55.8453 63.2303 54.9067 64.6809 53.712 65.9929C52.528 67.3049 51.216 68.3236 49.776 69.0489L48.624 67.4009C50.6933 66.2703 52.352 64.7823 53.6 62.9369C54.848 61.0916 55.472 59.2356 55.472 57.3689V57.0009H51.2V55.1289ZM66.832 55.4009H68.912V58.5369H68.928C70.0907 56.6596 71.6107 55.7209 73.488 55.7209C74.8107 55.7209 75.8507 56.1849 76.608 57.1129C77.376 58.0303 77.76 59.3263 77.76 61.0009C77.76 63.6036 77.0187 65.5076 75.536 66.7129C74.0533 67.9183 71.7013 68.5209 68.48 68.5209L68.368 66.6009C70.992 66.6009 72.8373 66.1743 73.904 65.3209C74.9813 64.4676 75.52 63.0276 75.52 61.0009C75.52 59.9236 75.328 59.1129 74.944 58.5689C74.56 58.0143 74.0053 57.7369 73.28 57.7369C72.1813 57.7369 71.1787 58.2969 70.272 59.4169C69.376 60.5369 68.9013 61.9023 68.848 63.5129L66.832 63.4969V55.4009Z" fill="white"/>
</svg>
