<svg width="80" height="78" viewBox="0 0 80 78" fill="none" xmlns="http://www.w3.org/2000/svg">
<path d="M40.5 18.6111C41.5469 18.6111 42.5836 18.4049 43.5508 18.0043C44.5181 17.6036 45.3969 17.0164 46.1372 16.2761C46.8775 15.5358 47.4647 14.657 47.8654 13.6897C48.266 12.7225 48.4722 11.6858 48.4722 10.6389C48.4722 9.59196 48.266 8.55529 47.8654 7.58805C47.4647 6.62082 46.8775 5.74197 46.1372 5.00168C45.3969 4.26139 44.5181 3.67416 43.5508 3.27352C42.5836 2.87288 41.5469 2.66667 40.5 2.66667C38.3856 2.66667 36.3579 3.5066 34.8628 5.00168C33.3677 6.49676 32.5278 8.52453 32.5278 10.6389C32.5278 12.7533 33.3677 14.781 34.8628 16.2761C36.3579 17.7712 38.3856 18.6111 40.5 18.6111ZM20 42.3V43.6667H61V42.3C61 37.1978 61 34.6467 60.0069 32.6969C59.1334 30.9826 57.7396 29.5888 56.0253 28.7153C54.0756 27.7222 51.5244 27.7222 46.4222 27.7222H34.5778C29.4756 27.7222 26.9244 27.7222 24.9747 28.7153C23.2604 29.5888 21.8666 30.9826 20.9931 32.6969C20 34.6467 20 37.1978 20 42.3Z" fill="#F4F4F4" stroke="#F4F4F4" stroke-width="5.33333" stroke-linecap="round" stroke-linejoin="round"/>
<path d="M1.552 62.0187V60.0347H14.448V62.0187C13.52 64.856 11.4667 67.1333 8.288 68.8507C8.992 69.8747 9.584 70.7493 10.064 71.4747L8.176 72.6587C6.58667 70.2587 4.98667 67.9813 3.376 65.8267L5.216 64.5947C5.70667 65.2453 6.30933 66.0667 7.024 67.0587C8.21867 66.44 9.26933 65.6773 10.176 64.7707C11.0933 63.864 11.744 62.9467 12.128 62.0187H1.552ZM17.376 65.2667C19.6373 64.9573 21.8347 64.296 23.968 63.2827C26.112 62.2587 27.904 61.0267 29.344 59.5867L30.656 61.0907C29.3973 62.3387 27.856 63.4587 26.032 64.4507V72.4667H23.728V65.5547C21.7547 66.3867 19.7493 66.9467 17.712 67.2347L17.376 65.2667ZM32.384 68.4827C32.6187 68.2053 33.1307 67.528 33.92 66.4507C34.7093 65.3627 35.1253 64.792 35.168 64.7387C36.224 63.224 36.9173 62.312 37.248 62.0027C37.5893 61.6933 38.064 61.5387 38.672 61.5387C39.0987 61.5387 39.4507 61.6027 39.728 61.7307C40.0053 61.8587 40.2987 62.0667 40.608 62.3547C40.9173 62.6427 41.4773 63.2293 42.288 64.1147C44.5493 66.536 46.3253 68.4027 47.616 69.7147L46.048 71.3307C44.2027 69.464 42.416 67.576 40.688 65.6667C39.984 64.888 39.5093 64.3867 39.264 64.1627C39.0293 63.9387 38.832 63.8267 38.672 63.8267C38.544 63.8267 38.3733 63.96 38.16 64.2267C37.9573 64.4827 37.5893 64.984 37.056 65.7307C35.936 67.3093 34.96 68.6427 34.128 69.7307L32.384 68.4827ZM46.448 59.2987C46.9493 59.8 47.2 60.4027 47.2 61.1067C47.2 61.8107 46.9493 62.4133 46.448 62.9147C45.9467 63.416 45.344 63.6667 44.64 63.6667C43.936 63.6667 43.3333 63.416 42.832 62.9147C42.3307 62.4133 42.08 61.8107 42.08 61.1067C42.08 60.4027 42.3307 59.8 42.832 59.2987C43.3333 58.7973 43.936 58.5467 44.64 58.5467C45.344 58.5467 45.9467 58.7973 46.448 59.2987ZM45.424 61.9067C45.648 61.6827 45.76 61.416 45.76 61.1067C45.76 60.7973 45.648 60.536 45.424 60.3227C45.2107 60.0987 44.9493 59.9867 44.64 59.9867C44.3307 59.9867 44.064 60.0987 43.84 60.3227C43.6267 60.536 43.52 60.7973 43.52 61.1067C43.52 61.416 43.6267 61.6827 43.84 61.9067C44.064 62.12 44.3307 62.2267 44.64 62.2267C44.9493 62.2267 45.2107 62.12 45.424 61.9067ZM49.392 66.9787V64.8347H62.608V66.9787H49.392ZM76.656 61.8587L78.688 62.2107C78.0693 65.5813 76.8267 68.0507 74.96 69.6187C73.0933 71.1867 70.2933 72.136 66.56 72.4667L66.24 70.4347C69.568 70.1467 72 69.3733 73.536 68.1147C75.072 66.856 76.112 64.7707 76.656 61.8587ZM77.376 60.8187L75.872 61.5387C75.5307 60.8347 75.1253 60.0613 74.656 59.2187L76.16 58.4667C76.5973 59.288 77.0027 60.072 77.376 60.8187ZM79.84 60.6267L78.304 61.3627C77.728 60.2533 77.312 59.464 77.056 58.9947L78.592 58.2267C79.0827 59.1227 79.4987 59.9227 79.84 60.6267ZM65.984 63.3947C67.3813 63.6293 69.1413 63.9707 71.264 64.4187L70.864 66.3067C68.9547 65.9013 67.2 65.5653 65.6 65.2987L65.984 63.3947ZM66.736 59.5067C68.432 59.784 70.2453 60.12 72.176 60.5147L71.776 62.4347C69.8453 62.04 68.032 61.704 66.336 61.4267L66.736 59.5067Z" fill="#F4F4F4"/>
</svg>
