<svg width="316" height="29" viewBox="0 0 316 29" fill="none" xmlns="http://www.w3.org/2000/svg">
<path d="M0.680003 29V23.8L23.68 23.84C24.8533 23.84 25.7467 23.5733 26.36 23.04C27 22.48 27.32 21.5867 27.32 20.36C27.32 19.1333 27 18.2533 26.36 17.72C25.7467 17.16 24.8533 16.88 23.68 16.88H9.36C6.4 16.88 4.09334 16.1733 2.44 14.76C0.813336 13.32 3.09944e-06 11.2133 3.09944e-06 8.44C3.09944e-06 5.66666 0.813336 3.57333 2.44 2.16C4.09334 0.719998 6.4 -1.90735e-06 9.36 -1.90735e-06H31.84V5.2L10.04 5.16C8.89334 5.16 8 5.42666 7.36 5.96C6.72 6.46666 6.4 7.29333 6.4 8.44C6.4 9.58667 6.72 10.4267 7.36 10.96C8 11.4667 8.89334 11.72 10.04 11.72H24.36C27.32 11.72 29.6133 12.4533 31.24 13.92C32.8933 15.36 33.72 17.5067 33.72 20.36C33.72 23.1867 32.8933 25.3333 31.24 26.8C29.6133 28.2667 27.32 29 24.36 29H0.680003ZM47.6928 29C44.1195 29 41.3328 28.12 39.3328 26.36C37.3328 24.5733 36.3328 21.96 36.3328 18.52C36.3328 15.0533 37.3328 12.44 39.3328 10.68C41.3328 8.89333 44.1195 8 47.6928 8H61.0928V12.6H47.6928C45.9595 12.6 44.6261 13.08 43.6928 14.04C42.7861 15 42.3328 16.4933 42.3328 18.52C42.3328 20.52 42.7861 22 43.6928 22.96C44.6261 23.92 45.9595 24.4 47.6928 24.4H61.4928V29H47.6928ZM75.0366 29C71.4632 29 68.6766 28.12 66.6766 26.36C64.6766 24.5733 63.6766 21.96 63.6766 18.52C63.6766 15.0533 64.6766 12.44 66.6766 10.68C68.6766 8.89333 71.4632 8 75.0366 8H85.0366C87.3832 8 89.1699 8.56 90.3966 9.68C91.6499 10.7733 92.2766 12.3467 92.2766 14.4C92.2766 18.5867 89.8632 20.68 85.0366 20.68H69.9166C70.4766 23.16 72.1832 24.4 75.0366 24.4H91.2366V29H75.0366ZM75.0366 12.6C72.2899 12.6 70.5966 13.76 69.9566 16.08H84.7566C85.2899 16.08 85.7032 15.92 85.9966 15.6C86.3166 15.28 86.4766 14.84 86.4766 14.28C86.4766 13.16 85.9032 12.6 84.7566 12.6H75.0366ZM95.8828 28.8V8.2H113.843C116.189 8.2 117.896 8.78666 118.963 9.96C120.056 11.1067 120.603 12.6267 120.603 14.52V28.8H114.803V15.2C114.803 13.6 114.003 12.8 112.403 12.8H101.683V28.8H95.8828Z" fill="#F8F8F8"/>
<path d="M122.989 28.8L135.869 0.199998H145.749L158.629 28.8H151.669L148.949 22.76H132.669L129.949 28.8H122.989ZM134.989 17.56H146.629L141.069 5.2H140.549L134.989 17.56ZM161.234 28.8V0.199998H167.034V28.8H161.234ZM171.43 28.8V0.199998H177.23V28.8H171.43ZM236.487 29C232.913 29 230.127 28.12 228.127 26.36C226.127 24.5733 225.127 21.96 225.127 18.52C225.127 15.0533 226.127 12.44 228.127 10.68C230.127 8.89333 232.913 8 236.487 8H243.887C247.46 8 250.247 8.89333 252.247 10.68C254.247 12.44 255.247 15.0533 255.247 18.52C255.247 21.96 254.247 24.5733 252.247 26.36C250.247 28.12 247.46 29 243.887 29H236.487ZM236.487 24.4H243.887C245.62 24.4 246.94 23.92 247.847 22.96C248.78 22 249.247 20.52 249.247 18.52C249.247 16.4933 248.78 15 247.847 14.04C246.94 13.08 245.62 12.6 243.887 12.6H236.487C234.753 12.6 233.42 13.08 232.487 14.04C231.58 15 231.127 16.4933 231.127 18.52C231.127 20.52 231.58 22 232.487 22.96C233.42 23.92 234.753 24.4 236.487 24.4ZM258.856 28.8V8.2H276.816C279.163 8.2 280.87 8.78666 281.936 9.96C283.03 11.1067 283.576 12.6267 283.576 14.52V28.8H277.776V15.2C277.776 13.6 276.976 12.8 275.376 12.8H264.656V28.8H258.856ZM298.323 29C294.749 29 291.963 28.12 289.963 26.36C287.963 24.5733 286.963 21.96 286.963 18.52C286.963 15.0533 287.963 12.44 289.963 10.68C291.963 8.89333 294.749 8 298.323 8H308.323C310.669 8 312.456 8.56 313.683 9.68C314.936 10.7733 315.563 12.3467 315.563 14.4C315.563 18.5867 313.149 20.68 308.323 20.68H293.203C293.763 23.16 295.469 24.4 298.323 24.4H314.523V29H298.323ZM298.323 12.6C295.576 12.6 293.883 13.76 293.243 16.08H308.043C308.576 16.08 308.989 15.92 309.283 15.6C309.603 15.28 309.763 14.84 309.763 14.28C309.763 13.16 309.189 12.6 308.043 12.6H298.323Z" fill="#8BB739"/>
<path d="M184.825 28.8V8.2H190.625V28.8H184.825ZM184.785 4.8V0.279997H190.665V4.8H184.785ZM195.02 28.8V8.2H212.98C215.327 8.2 217.034 8.78666 218.1 9.96C219.194 11.1067 219.74 12.6267 219.74 14.52V28.8H213.94V15.2C213.94 13.6 213.14 12.8 211.54 12.8H200.82V28.8H195.02Z" fill="white"/>
</svg>
