<svg width="213" height="77" viewBox="0 0 213 77" fill="none" xmlns="http://www.w3.org/2000/svg">
<rect y="53" width="213" height="11" fill="#D59657"/>
<mask id="path-2-outside-1_13_225" maskUnits="userSpaceOnUse" x="1" y="12" width="210" height="50" fill="black">
<rect fill="white" x="1" y="12" width="210" height="50"/>
<path d="M4.496 49.72C16.1867 50.36 24.1013 50.68 28.24 50.68C29.2213 50.68 29.9893 50.4027 30.544 49.848C31.1413 49.2507 31.44 48.4613 31.44 47.48V41.72H16.72C12.24 41.72 8.976 40.7173 6.928 38.712C4.92267 36.664 3.92 33.4 3.92 28.92V27C3.92 22.52 4.92267 19.2773 6.928 17.272C8.976 15.224 12.24 14.2 16.72 14.2H39.184V23.16H19.28C16.72 23.16 15.44 24.44 15.44 27V28.28C15.44 30.84 16.72 32.12 19.28 32.12H30.8C34.9813 32.12 38.0533 33.1013 40.016 35.064C41.9787 37.0267 42.96 40.0987 42.96 44.28V47.48C42.96 51.6613 41.9787 54.7333 40.016 56.696C38.0533 58.6587 34.9813 59.64 30.8 59.64C28.624 59.64 26.32 59.5973 23.888 59.512L18 59.256C13.648 59.0427 9.14667 58.744 4.496 58.36V49.72ZM91.915 59H79.435L96.395 14.2H109.195L126.155 59H113.675L110.795 51H94.795L91.915 59ZM97.675 42.68H107.915L102.795 27.64L97.675 42.68ZM185.368 50.04H208.728V59H173.848V14.2H185.368V50.04Z"/>
<path d="M71.1275 59H59.6075V23.16H46.1675V14.2H84.5675V23.16H71.1275V59ZM143.433 50.04H166.793V59H131.913V14.2H143.433V50.04Z"/>
</mask>
<path d="M4.496 49.72C16.1867 50.36 24.1013 50.68 28.24 50.68C29.2213 50.68 29.9893 50.4027 30.544 49.848C31.1413 49.2507 31.44 48.4613 31.44 47.48V41.72H16.72C12.24 41.72 8.976 40.7173 6.928 38.712C4.92267 36.664 3.92 33.4 3.92 28.92V27C3.92 22.52 4.92267 19.2773 6.928 17.272C8.976 15.224 12.24 14.2 16.72 14.2H39.184V23.16H19.28C16.72 23.16 15.44 24.44 15.44 27V28.28C15.44 30.84 16.72 32.12 19.28 32.12H30.8C34.9813 32.12 38.0533 33.1013 40.016 35.064C41.9787 37.0267 42.96 40.0987 42.96 44.28V47.48C42.96 51.6613 41.9787 54.7333 40.016 56.696C38.0533 58.6587 34.9813 59.64 30.8 59.64C28.624 59.64 26.32 59.5973 23.888 59.512L18 59.256C13.648 59.0427 9.14667 58.744 4.496 58.36V49.72ZM91.915 59H79.435L96.395 14.2H109.195L126.155 59H113.675L110.795 51H94.795L91.915 59ZM97.675 42.68H107.915L102.795 27.64L97.675 42.68ZM185.368 50.04H208.728V59H173.848V14.2H185.368V50.04Z" fill="#DA5151"/>
<path d="M71.1275 59H59.6075V23.16H46.1675V14.2H84.5675V23.16H71.1275V59ZM143.433 50.04H166.793V59H131.913V14.2H143.433V50.04Z" fill="white"/>
<path d="M4.496 49.72L4.60533 47.723L2.496 47.6075V49.72H4.496ZM30.544 49.848L29.1298 48.4338H29.1298L30.544 49.848ZM31.44 41.72H33.44V39.72H31.44V41.72ZM6.928 38.712L5.49898 40.1113L5.51371 40.1263L5.52875 40.141L6.928 38.712ZM6.928 17.272L8.34221 18.6862L8.34221 18.6862L6.928 17.272ZM39.184 14.2H41.184V12.2H39.184V14.2ZM39.184 23.16V25.16H41.184V23.16H39.184ZM40.016 56.696L38.6018 55.2818V55.2818L40.016 56.696ZM23.888 59.512L23.8011 61.5101L23.8095 61.5105L23.8179 61.5108L23.888 59.512ZM18 59.256L17.9021 61.2536L17.9131 61.2541L18 59.256ZM4.496 58.36H2.496V60.2017L4.33142 60.3532L4.496 58.36ZM4.496 49.72L4.38667 51.717C16.0706 52.3566 24.0383 52.68 28.24 52.68V50.68V48.68C24.1643 48.68 16.3027 48.3634 4.60533 47.723L4.496 49.72ZM28.24 50.68V52.68C29.6112 52.68 30.9395 52.2809 31.9582 51.2622L30.544 49.848L29.1298 48.4338C29.0391 48.5244 28.8315 48.68 28.24 48.68V50.68ZM30.544 49.848L31.9582 51.2622C32.9915 50.229 33.44 48.899 33.44 47.48H31.44H29.44C29.44 48.0236 29.2912 48.2724 29.1298 48.4338L30.544 49.848ZM31.44 47.48H33.44V41.72H31.44H29.44V47.48H31.44ZM31.44 41.72V39.72H16.72V41.72V43.72H31.44V41.72ZM16.72 41.72V39.72C12.4778 39.72 9.83787 38.7621 8.32725 37.283L6.928 38.712L5.52875 40.141C8.11413 42.6725 12.0022 43.72 16.72 43.72V41.72ZM6.928 38.712L8.35702 37.3128C6.87787 35.8021 5.92 33.1622 5.92 28.92H3.92H1.92C1.92 33.6378 2.96747 37.5259 5.49898 40.1113L6.928 38.712ZM3.92 28.92H5.92V27H3.92H1.92V28.92H3.92ZM3.92 27H5.92C5.92 22.7529 6.8799 20.1485 8.34221 18.6862L6.928 17.272L5.51379 15.8578C2.96543 18.4061 1.92 22.2871 1.92 27H3.92ZM6.928 17.272L8.34221 18.6862C9.85372 17.1747 12.4874 16.2 16.72 16.2V14.2V12.2C11.9926 12.2 8.09828 13.2733 5.51379 15.8578L6.928 17.272ZM16.72 14.2V16.2H39.184V14.2V12.2H16.72V14.2ZM39.184 14.2H37.184V23.16H39.184H41.184V14.2H39.184ZM39.184 23.16V21.16H19.28V23.16V25.16H39.184V23.16ZM19.28 23.16V21.16C17.6917 21.16 16.1331 21.5584 14.9858 22.7058C13.8384 23.8531 13.44 25.4117 13.44 27H15.44H17.44C17.44 26.0283 17.6816 25.6669 17.8142 25.5342C17.9469 25.4016 18.3083 25.16 19.28 25.16V23.16ZM15.44 27H13.44V28.28H15.44H17.44V27H15.44ZM15.44 28.28H13.44C13.44 29.8683 13.8384 31.4269 14.9858 32.5742C16.1331 33.7216 17.6917 34.12 19.28 34.12V32.12V30.12C18.3083 30.12 17.9469 29.8784 17.8142 29.7458C17.6816 29.6131 17.44 29.2517 17.44 28.28H15.44ZM19.28 32.12V34.12H30.8V32.12V30.12H19.28V32.12ZM30.8 32.12V34.12C34.7159 34.12 37.1673 35.0437 38.6018 36.4782L40.016 35.064L41.4302 33.6498C38.9394 31.159 35.2468 30.12 30.8 30.12V32.12ZM40.016 35.064L38.6018 36.4782C40.0363 37.9128 40.96 40.3641 40.96 44.28H42.96H44.96C44.96 39.8332 43.921 36.1406 41.4302 33.6498L40.016 35.064ZM42.96 44.28H40.96V47.48H42.96H44.96V44.28H42.96ZM42.96 47.48H40.96C40.96 51.3959 40.0363 53.8472 38.6018 55.2818L40.016 56.696L41.4302 58.1102C43.921 55.6194 44.96 51.9268 44.96 47.48H42.96ZM40.016 56.696L38.6018 55.2818C37.1673 56.7163 34.7159 57.64 30.8 57.64V59.64V61.64C35.2468 61.64 38.9394 60.601 41.4302 58.1102L40.016 56.696ZM30.8 59.64V57.64C28.6499 57.64 26.3694 57.5978 23.9581 57.5132L23.888 59.512L23.8179 61.5108C26.2706 61.5968 28.5981 61.64 30.8 61.64V59.64ZM23.888 59.512L23.9749 57.5139L18.0869 57.2579L18 59.256L17.9131 61.2541L23.8011 61.5101L23.888 59.512ZM18 59.256L18.0979 57.2584C13.7697 57.0462 9.2906 56.7491 4.66058 56.3668L4.496 58.36L4.33142 60.3532C9.00273 60.7389 13.5263 61.0391 17.9021 61.2536L18 59.256ZM4.496 58.36H6.496V49.72H4.496H2.496V58.36H4.496ZM71.1275 59V61H73.1275V59H71.1275ZM59.6075 59H57.6075V61H59.6075V59ZM59.6075 23.16H61.6075V21.16H59.6075V23.16ZM46.1675 23.16H44.1675V25.16H46.1675V23.16ZM46.1675 14.2V12.2H44.1675V14.2H46.1675ZM84.5675 14.2H86.5675V12.2H84.5675V14.2ZM84.5675 23.16V25.16H86.5675V23.16H84.5675ZM71.1275 23.16V21.16H69.1275V23.16H71.1275ZM71.1275 59V57H59.6075V59V61H71.1275V59ZM59.6075 59H61.6075V23.16H59.6075H57.6075V59H59.6075ZM59.6075 23.16V21.16H46.1675V23.16V25.16H59.6075V23.16ZM46.1675 23.16H48.1675V14.2H46.1675H44.1675V23.16H46.1675ZM46.1675 14.2V16.2H84.5675V14.2V12.2H46.1675V14.2ZM84.5675 14.2H82.5675V23.16H84.5675H86.5675V14.2H84.5675ZM84.5675 23.16V21.16H71.1275V23.16V25.16H84.5675V23.16ZM71.1275 23.16H69.1275V59H71.1275H73.1275V23.16H71.1275ZM91.915 59V61H93.3206L93.7968 59.6774L91.915 59ZM79.435 59L77.5645 58.2919L76.5393 61H79.435V59ZM96.395 14.2V12.2H95.0136L94.5245 13.4919L96.395 14.2ZM109.195 14.2L111.065 13.4919L110.576 12.2H109.195V14.2ZM126.155 59V61H129.051L128.025 58.2919L126.155 59ZM113.675 59L111.793 59.6774L112.269 61H113.675V59ZM110.795 51L112.677 50.3226L112.201 49H110.795V51ZM94.795 51V49H93.3893L92.9132 50.3226L94.795 51ZM97.675 42.68L95.7817 42.0355L94.8814 44.68H97.675V42.68ZM107.915 42.68V44.68H110.709L109.808 42.0355L107.915 42.68ZM102.795 27.64L104.688 26.9955L102.795 21.4339L100.902 26.9955L102.795 27.64ZM91.915 59V57H79.435V59V61H91.915V59ZM79.435 59L81.3055 59.7081L98.2654 14.9081L96.395 14.2L94.5245 13.4919L77.5645 58.2919L79.435 59ZM96.395 14.2V16.2H109.195V14.2V12.2H96.395V14.2ZM109.195 14.2L107.325 14.9081L124.285 59.7081L126.155 59L128.025 58.2919L111.065 13.4919L109.195 14.2ZM126.155 59V57H113.675V59V61H126.155V59ZM113.675 59L115.557 58.3226L112.677 50.3226L110.795 51L108.913 51.6774L111.793 59.6774L113.675 59ZM110.795 51V49H94.795V51V53H110.795V51ZM94.795 51L92.9132 50.3226L90.0332 58.3226L91.915 59L93.7968 59.6774L96.6768 51.6774L94.795 51ZM97.675 42.68V44.68H107.915V42.68V40.68H97.675V42.68ZM107.915 42.68L109.808 42.0355L104.688 26.9955L102.795 27.64L100.902 28.2845L106.022 43.3245L107.915 42.68ZM102.795 27.64L100.902 26.9955L95.7817 42.0355L97.675 42.68L99.5683 43.3245L104.688 28.2845L102.795 27.64ZM143.432 50.04H141.432V52.04H143.432V50.04ZM166.793 50.04H168.793V48.04H166.793V50.04ZM166.793 59V61H168.793V59H166.793ZM131.913 59H129.913V61H131.913V59ZM131.913 14.2V12.2H129.913V14.2H131.913ZM143.432 14.2H145.432V12.2H143.432V14.2ZM143.432 50.04V52.04H166.793V50.04V48.04H143.432V50.04ZM166.793 50.04H164.793V59H166.793H168.793V50.04H166.793ZM166.793 59V57H131.913V59V61H166.793V59ZM131.913 59H133.913V14.2H131.913H129.913V59H131.913ZM131.913 14.2V16.2H143.432V14.2V12.2H131.913V14.2ZM143.432 14.2H141.432V50.04H143.432H145.432V14.2H143.432ZM185.368 50.04H183.368V52.04H185.368V50.04ZM208.728 50.04H210.728V48.04H208.728V50.04ZM208.728 59V61H210.728V59H208.728ZM173.848 59H171.848V61H173.848V59ZM173.848 14.2V12.2H171.848V14.2H173.848ZM185.368 14.2H187.368V12.2H185.368V14.2ZM185.368 50.04V52.04H208.728V50.04V48.04H185.368V50.04ZM208.728 50.04H206.728V59H208.728H210.728V50.04H208.728ZM208.728 59V57H173.848V59V61H208.728V59ZM173.848 59H175.848V14.2H173.848H171.848V59H173.848ZM173.848 14.2V16.2H185.368V14.2V12.2H173.848V14.2ZM185.368 14.2H183.368V50.04H185.368H187.368V14.2H185.368Z" fill="#3E3E4E" mask="url(#path-2-outside-1_13_225)"/>
</svg>
